# xmcd
#
# Track frame offsets: 
#        187
#        16542
#        34715
#        53800
#        77430
#        99297
#        116377
#        134572
#        152652
#        171975
#        190102
#        207877
#        225860
#
# Disc length: 3254 seconds
#
# Revision: 3
# Processed by: cddbd v1.5.2PL0 Copyright (c) Steve Scherf et al.
# Submitted via: ExactAudioCopy v0.99pb4
#
DISCID=8f0cb40d
DTITLE=Jody Watley - Flower
DYEAR=1998
DGENRE=R&B
TTITLE0=Lovin' You So
TTITLE1=Flower
TTITLE2=Off The Hook
TTITLE3=Everything You Do
TTITLE4=Just One More Time
TTITLE5=If I'm Not In Love
TTITLE6=A Lifetime
TTITLE7=No More Tears To Cry
TTITLE8=You'll Never Find A Love
TTITLE9=I Don't Want You Back
TTITLE10=Baby Tonight
TTITLE11=16
TTITLE12=Off The Hook (D-Dot Remix)
EXTD=
EXTT0=
EXTT1=
EXTT2=
EXTT3=
EXTT4=
EXTT5=
EXTT6=
EXTT7=
EXTT8=
EXTT9=
EXTT10=
EXTT11=
EXTT12=
PLAYORDER=
